<?xml version="1.0" encoding="utf-8"?>
<!-- Generator: Adobe Illustrator 22.1.0, SVG Export Plug-In . SVG Version: 6.00 Build 0)  -->
<svg version="1.1" id="Capa_1" xmlns="http://www.w3.org/2000/svg" xmlns:xlink="http://www.w3.org/1999/xlink" x="0px" y="0px"
	 viewBox="0 0 523 524" style="enable-background:new 0 0 523 524;" xml:space="preserve">
<style type="text/css">
	.st0{fill:#FFFFFF;}
</style>
<g>
	<path class="st0" d="M434-342.3c-2.9-27.5-11.2-52.2-25-75c-5.3-8.9-11.3-17.3-18.3-24.9c-2.1-2.3-2-3.4,0.6-5.3
		c8.3-5.9,14.1-13.9,18.4-23.7c9.2,9.1,16.8,19,23.6,29.4c20.7,31.6,32.3,66.2,34.7,103.9c0.2,2.5,1,3.8,3.2,5
		c14.6,8.2,22.2,20.7,22.3,37.5c0.2,18.3,0.1,36.7,0,55c-0.1,16.7-7.5,29.4-22.1,37.6c-2.6,1.4-2.8,3.3-2.7,5.7
		c0,19.2-0.1,38.3,0.1,57.5c0.2,14.5-3.7,27.3-14.6,37.4c-8.9,8.2-19.5,11.9-31.4,11.9c-32.5,0-65,0-97.5-0.1
		c-3.3,0-5.4,0.8-7.4,3.6C309.6-75,297.9-69,283.4-69c-18.5,0.1-37,0.1-55.5,0c-22.7-0.1-40.8-17.8-41.6-40.7
		c-0.8-22.1,16.6-41.6,39.1-42.5c20.1-0.8,40.3-0.7,60.5-0.1c17,0.5,29,9.7,36.2,24.9c1.2,2.5,2.4,3.4,5.1,3.4
		c31.8-0.1,63.7,0,95.5-0.1c7,0,12.1-3.8,12.2-9.9c0.3-20.1,0.1-40.2,0.1-61.9c-5.3,10.5-11.9,17.7-21.2,21.9
		c-27.8,12.7-58.9-6.5-59.3-37.3c-0.5-37.8-0.3-75.7-0.1-113.5c0.1-18.2,12.5-34,29.5-39.2c17.4-5.3,35.5,0.9,46.3,16
		C431.3-346.3,432.4-344.7,434-342.3z"/>
	<path class="st0" d="M102.3-470.9c4.5,9.8,10.9,17.9,19.6,24.1c3.1,2.2,0,3.4-0.9,4.6c-14.7,17.1-25.9,36.2-33.6,57.4
		c-4.4,12.1-6.7,24.7-9.3,37.2c-0.2,0.9-0.7,2.2,0.8,2.4c1.5,0.3,1.8-1.3,2.4-2.2c6.9-9.6,16-15.9,27.8-17.8
		c25.4-4,48.3,14.8,48.5,40.6c0.3,37.8,0.3,75.7,0,113.5c-0.1,19.9-14.2,36.2-33.9,40.3c-18.5,3.9-37.6-5.8-45.6-23.5
		c-1.3-3-2.9-3.8-6-3.7c-6.3,0.1-12.8,0.5-19-0.5c-18.8-3-33.1-17.8-34.3-37c-1.4-21.8-1.3-43.6,0-65.4c0.8-13.8,8.4-24,20-31
		c3.6-2.2,4.9-4.4,5.2-8.5c3.9-49.7,22.9-92.9,56.7-129.6C101.2-470.3,101.7-470.4,102.3-470.9z"/>
	<path class="st0" d="M256.5-561c42.8,0.5,83,10.6,120.2,31.9c18.9,10.8,26.8,29,21,48.5c-5.4,18.4-23.6,31.4-42.7,30.5
		c-6.9-0.3-13.5-2.1-19.5-5.6c-28.4-16.8-59.2-23.5-92-21.1c-22.3,1.6-43.6,7.4-63.1,18.6c-11.6,6.7-23.7,10.1-36.8,6.1
		c-16.7-5.1-27.6-16.3-30.4-33.7c-2.8-17.8,3.8-32.1,19.5-41.6c31.9-19.2,66.7-29.8,103.7-32.7C243.1-560.7,249.8-561.2,256.5-561z"
		/>
</g>
<g>
	<path class="st0" d="M36.6,490.5c6.2-18.3,12.1-35.7,18-53.1c7.2-21.2,14.3-42.5,21.6-63.7c0.9-2.6,0.7-4.6-0.7-7
		c-22.2-38.1-33-79.3-30.2-123.2c5.1-79.8,42.5-141,110.7-182.4c45.9-27.9,96.4-36.6,149.3-28.9c92.8,13.5,168.2,84.7,187.4,176.4
		c23.2,110.7-41.3,222.7-149.5,258.2c-60.8,19.9-120,15.1-177.1-13.9c-3.3-1.7-6-1.8-9.4-0.7C117.1,464.9,77.4,477.5,36.6,490.5z
		 M93.5,434.8c23.7-7.5,46.4-14.7,69-21.9c2.7-0.9,4.8-0.8,7.4,0.8c44.6,27.3,92.6,35.6,143.7,24.4
		c99.6-21.8,164.1-120.8,144.2-220.8C438.2,119.5,343,52.5,244.3,67.3C193.3,75,151.4,99.1,120,140c-31.6,41.1-43.8,87.9-37.2,139.4
		c3.9,30.1,14.9,57.4,32.2,82.3c1.6,2.2,2.1,4.1,1.1,6.8c-2.4,6.3-4.5,12.9-6.7,19.3C104.2,403.1,99,418.4,93.5,434.8z"/>
	<path class="st0" d="M200.4,152.1c2,0,3.5,0.2,5,0c6.5-1,9.9,2.7,12.2,8c4.2,9.9,8.3,19.9,12.5,29.9c1.2,2.9,2.1,6,3.8,8.7
		c5,8.1,2.3,14.9-2.9,21.4c-3.1,3.9-6.4,7.7-9.8,11.3c-3.2,3.3-3.9,6.7-1.5,10.8c18.3,30.9,43.9,53.1,77.5,66.1
		c4,1.5,7.1,0.7,9.8-2.4c5.9-6.8,11.8-13.6,17.1-20.9c3.8-5.1,6-6.1,11.9-3.7c15.9,6.5,31,14.4,46.4,21.9c2.8,1.4,3.8,3.8,3.9,6.9
		c0.3,25.8-13.3,40.2-40.6,48c-16,4.5-30.4-1.1-45.3-5.5c-48-14.1-83.7-44.5-112.2-84.6c-9.9-14-19.7-28-24.3-44.9
		c-6.8-24.7-1.6-46.4,16.6-64.7C186.1,152.6,193,150.8,200.4,152.1z"/>
</g>
</svg>
